<svg xmlns="http://www.w3.org/2000/svg" height="240" viewBox="120 -920 800 840" width="240" fill="#ff8c00"><path d="M240-160h480q17 0 28.5-11.5T760-200H200q0 17 11.5 28.5T240-160m240-480q-48 0-80-33.5T370-755q2-52 36.5-91.5T480-920q39 34 73.5 73.5T590-755q2 48-30 81.5T480-640m-40 360h80v-240h-80zm40-440q13 0 21.5-9t8.5-22q0-17-9.5-31T480-809q-11 13-20.5 27t-9.5 31q0 13 8.5 22t21.5 9m330 440q13 0 21.5-8.5T840-310t-8.5-21.5T810-340t-21.5 8.5T780-310t8.5 21.5T810-280M720-80H240q-50 0-85-35t-35-85v-80h240v-240q0-33 23.5-56.5T440-600h80q33 0 56.5 23.5T600-520v240h104q-2-8-3-15t-1-15q0-46 32-78t78-32 78 32 32 78q0 38-22.5 67T840-204v4q0 50-35 85t-85 35M440-280h80zm40-484"/></svg>